<svg fixedSizeVersion="true" viewBox="0 0 16 16" xmlns="http://www.w3.org/2000/svg">
  <symbol viewBox="0 0 1024 1024" id="arrow-chevron-dual-down">
    <title>Bottom</title>
    <desc>Two thick chevron arrows pointing down</desc>
    <path d="M157.897 239.55l354.077 354.067 354.129-354.066-99.003-99-252.256 252.231a4.057 4.057 0 0 1-5.737 0L256.901 140.551l-99.004 98.999z" />
    <path d="M198.063 584.62l288.176 288.167c14.215 14.215 37.262 14.216 51.478.002L825.936 584.62l-87.773-87.77-226.185 226.163L285.837 496.85l-87.774 87.77z" />
  </symbol>
  <symbol viewBox="0 0 1024 1024" id="arrow-chevron-dual-left">
    <title>Left</title>
    <desc>Two thick chevron arrows pointing left</desc>
    <path d="M784.45 157.897L430.383 511.974l354.066 354.129 99-99.003-252.231-252.256a4.057 4.057 0 0 1 0-5.737l252.231-252.206-98.999-99.004z" />
    <path d="M439.38 198.063L151.213 486.239c-14.215 14.215-14.216 37.262-.002 51.478l288.168 288.22 87.77-87.773-226.162-226.186L527.15 285.837l-87.77-87.774z" />
  </symbol>
  <symbol viewBox="0 0 1024 1024" id="arrow-chevron-dual-right">
    <title>Right</title>
    <desc>Two thick chevron arrows pointing right</desc>
    <path d="M239.55 866.103l354.067-354.077-354.066-354.129-99 99.003 252.231 252.257a4.057 4.057 0 0 1 0 5.737L140.551 767.099l98.999 99.004z" />
    <path d="M584.62 825.937l288.167-288.176c14.215-14.215 14.216-37.262.002-51.478L584.62 198.064l-87.77 87.773 226.163 226.186-226.163 226.14 87.77 87.774z" />
  </symbol>
  <symbol viewBox="0 0 1024 1024" id="arrow-chevron-dual-up">
    <title>Top</title>
    <desc>Two thick chevron arrows pointing up</desc>
    <path d="M866.103 784.45L512.026 430.383 157.897 784.449l99.003 99 252.257-252.231a4.057 4.057 0 0 1 5.737 0L767.1 883.449l99.003-98.999z" />
    <path d="M825.937 439.38L537.761 151.213c-14.215-14.215-37.262-14.216-51.478-.002l-288.22 288.168 87.773 87.77 226.186-226.163L738.163 527.15l87.774-87.77z" />
  </symbol>
  <symbol viewBox="0 0 1024 1024" id="arrow-chevron-thick-down">
    <title>Down</title>
    <desc>Thick chevron arrow pointing down</desc>
    <path d="M157.889 392.967l325.046 325.036c16.034 16.033 42.029 16.034 58.064.002l325.096-325.038-99.003-99-252.257 252.231a4.056 4.056 0 0 1-5.736 0L256.893 293.967l-99.004 99z" />
  </symbol>
  <symbol viewBox="0 0 1024 1024" id="arrow-chevron-thick-left">
    <title>Left</title>
    <desc>Thick chevron arrow pointing left</desc>
    <path d="M631.032 157.897L305.995 482.943c-16.034 16.034-16.035 42.03-.002 58.065l325.039 325.096 99-99.004L477.8 514.844a4.056 4.056 0 0 1 .001-5.737l252.231-252.206-99-99.004z" />
  </symbol>
  <symbol viewBox="0 0 1024 1024" id="arrow-chevron-thick-right">
    <title>Right</title>
    <desc>Thick chevron arrow pointing right</desc>
    <path d="M392.96 866.101l325.036-325.046c16.033-16.034 16.034-42.029.002-58.064L392.96 157.895l-99 99.003 252.231 252.257a4.057 4.057 0 0 1 0 5.737L293.96 767.097l99 99.004z" />
  </symbol>
  <symbol viewBox="0 0 1024 1024" id="arrow-chevron-thick-up">
    <title>Up</title>
    <desc>Thick chevron arrow pointing up</desc>
    <path d="M866.103 631.031L541.057 305.995c-16.033-16.034-42.029-16.035-58.064-.002L157.897 631.031l99.003 99L509.157 477.8a4.056 4.056 0 0 1 5.736 0L767.1 730.031l99.003-99z" />
  </symbol>
  <symbol viewBox="0 0 1024 1024" id="arrow-chevron-thin-down">
    <title>Down</title>
    <desc>Thin chevron arrow pointing down</desc>
    <path d="M285.067 377.532l221.159 186.946c3.434 2.768 8.203 2.768 11.49 0l221.306-186.946 40.454 47.949-256.828 217.057c-6.104 5.24-15.169 5.24-21.24 0L244.523 425.481l40.544-47.949z" />
  </symbol>
  <symbol viewBox="0 0 1024 1024" id="arrow-chevron-thin-left">
    <title>Left</title>
    <desc>Thin chevron arrow pointing left</desc>
    <path d="M646.469 285.067l-186.947 221.16c-2.768 3.434-2.768 8.203 0 11.49l186.947 221.306-47.949 40.454-217.059-256.829c-5.24-6.103-5.24-15.169 0-21.24l217.058-256.885 47.95 40.544z" />
  </symbol>
  <symbol viewBox="0 0 1024 1024" id="arrow-chevron-thin-right">
    <title>Right</title>
    <desc>Thin chevron arrow pointing right</desc>
    <path d="M377.531 738.933l186.947-221.159c2.768-3.434 2.768-8.203 0-11.49L377.531 284.978l47.949-40.454 217.059 256.828c5.24 6.104 5.24 15.169 0 21.24L425.48 779.477l-47.949-40.544z" />
  </symbol>
  <symbol viewBox="0 0 1024 1024" id="arrow-chevron-thin-up">
    <title>Up</title>
    <desc>Thin chevron arrow pointing up</desc>
    <path d="M738.933 646.469l-221.16-186.947c-3.434-2.768-8.203-2.768-11.49 0L284.977 646.469l-40.454-47.949 256.828-217.058c6.103-5.24 15.169-5.24 21.24 0L779.476 598.52l-40.543 47.949z" />
  </symbol>
  <symbol viewBox="0 0 1024 1024" id="arrow-open-tailed-down">
    <title>Down</title>
    <desc>Arrow pointing down</desc>
    <path d="M512.017 971.786c19.856 0 39.681-7.617 54.817-22.754l311.36-311.352c30.307-30.307 30.307-79.395 0-109.717-30.24-30.258-79.329-30.258-109.537 0L589.556 707.065V129.721c0-42.822-34.701-77.507-77.539-77.507-42.871 0-77.507 34.684-77.507 77.507v577.345L255.44 527.964c-30.306-30.258-79.361-30.258-109.635 0-30.307 30.322-30.307 79.41 0 109.717l311.426 311.385c15.169 15.103 34.928 22.72 54.786 22.72z"
    />
  </symbol>
  <symbol viewBox="0 0 1024 1024" id="arrow-open-tailed-left">
    <title>Left</title>
    <desc>Arrow pointing left</desc>
    <path d="M52.214 512.017c0 19.856 7.617 39.681 22.754 54.817l311.352 311.36c30.306 30.307 79.395 30.307 109.717 0 30.257-30.24 30.257-79.329 0-109.537L316.935 589.556h577.344c42.822 0 77.507-34.701 77.507-77.539 0-42.871-34.685-77.507-77.507-77.507H316.935l179.102-179.07c30.257-30.306 30.257-79.361 0-109.635-30.322-30.307-79.411-30.307-109.717 0L74.935 457.231c-15.104 15.169-22.721 34.928-22.721 54.786z"
    />
  </symbol>
  <symbol viewBox="0 0 1024 1024" id="arrow-open-tailed-right">
    <title>Right</title>
    <desc>Arrow pointing right</desc>
    <path d="M971.786 511.983c0-19.856-7.617-39.681-22.754-54.817L637.68 145.806c-30.306-30.307-79.395-30.307-109.717 0-30.257 30.24-30.257 79.329 0 109.537l179.102 179.101-577.344.001c-42.822 0-77.507 34.701-77.507 77.539 0 42.871 34.684 77.507 77.507 77.507h577.344L527.963 768.56c-30.257 30.306-30.257 79.361 0 109.635 30.322 30.307 79.411 30.307 109.717 0l311.386-311.426c15.103-15.169 22.72-34.928 22.72-54.786z"
    />
  </symbol>
  <symbol viewBox="0 0 1024 1024" id="arrow-open-tailed-up">
    <title>Up</title>
    <desc>Arrow pointing up</desc>
    <path d="M511.983 52.214c-19.856 0-39.681 7.617-54.817 22.754L145.806 386.32c-30.307 30.306-30.307 79.395 0 109.717 30.24 30.257 79.329 30.257 109.537 0l179.101-179.102v577.344c0 42.822 34.701 77.507 77.539 77.507 42.871 0 77.507-34.684 77.507-77.507V316.935l179.07 179.102c30.306 30.257 79.361 30.257 109.635 0 30.307-30.322 30.307-79.411 0-109.717L566.769 74.935c-15.169-15.104-34.928-22.721-54.786-22.721z"
    />
  </symbol>
  <symbol viewBox="0 0 1024 1024" id="arrow-triangular-closed-down">
    <title>Down</title>
    <desc>Equilateral triangle pointing down</desc>
    <path d="M540.482 627.852c-18.668 20.313-37.68 20.313-57.211 0L292.289 445.366c-8.057-7.26-12.109-15.82-12.109-25.554 0-11.36 4.053-20.671 12.109-27.995 7.324-7.291 16.633-10.904 28.027-10.904h384.49c11.359 0 20.621 3.613 27.994 10.904 7.26 7.324 11.019 16.635 11.019 27.995 0 9.733-3.76 18.294-11.019 25.554L540.482 627.852z"
    />
  </symbol>
  <symbol viewBox="0 0 1024 1024" id="arrow-triangular-closed-left">
    <title>Left</title>
    <desc>Equilateral triangle pointing left</desc>
    <path d="M396.147 540.482c-20.313-18.668-20.313-37.68 0-57.211l182.486-190.982c7.26-8.057 15.82-12.109 25.554-12.109 11.36 0 20.671 4.053 27.995 12.109 7.291 7.324 10.904 16.633 10.904 28.027v384.49c0 11.359-3.613 20.621-10.904 27.994-7.324 7.26-16.635 11.02-27.995 11.02-9.733 0-18.294-3.76-25.554-11.02L396.147 540.482z"
    />
  </symbol>
  <symbol viewBox="0 0 1024 1024" id="arrow-triangular-closed-right">
    <title>Right</title>
    <desc>Equilateral triangle pointing right</desc>
    <path d="M627.852 483.519c20.313 18.668 20.313 37.68 0 57.211L445.366 731.712c-7.26 8.057-15.82 12.109-25.554 12.109-11.36 0-20.671-4.053-27.995-12.109-7.291-7.324-10.904-16.633-10.904-28.027v-384.49c0-11.359 3.613-20.621 10.904-27.994 7.324-7.26 16.635-11.02 27.995-11.02 9.733 0 18.294 3.76 25.554 11.02l182.486 192.318z"
    />
  </symbol>
  <symbol viewBox="0 0 1024 1024" id="arrow-triangular-closed-up">
    <title>Up</title>
    <desc>Equilateral triangle pointing up</desc>
    <path d="M483.518 396.148c18.668-20.313 37.68-20.313 57.211 0l190.982 182.486c8.057 7.26 12.109 15.82 12.109 25.554 0 11.36-4.053 20.671-12.109 27.995-7.324 7.291-16.633 10.904-28.027 10.904h-384.49c-11.359 0-20.621-3.613-27.994-10.904-7.26-7.324-11.02-16.635-11.02-27.995 0-9.733 3.76-18.294 11.02-25.554l192.318-182.486z"
    />
  </symbol>
  <symbol viewBox="0 0 1024 1024" id="bookmark-outline">
    <title>Add bookmark</title>
    <desc>Outline of a bookmark ribbon</desc>
    <path d="M822 82v805.689L512.073 700.187 202 887.777V82h620M172 12c-22.091 0-40 17.909-40 40v960h.291l-.145-.148L512.073 782 892 1011.852V52c0-22.091-17.909-40-40-40H172z" />
  </symbol>
  <symbol viewBox="0 0 1024 1024" id="bookmark-solid">
    <title>Bookmark</title>
    <desc>Solid bookmark ribbon</desc>
    <path d="M892 52c0-22.091-17.909-40-40-40H172c-22.091 0-40 17.909-40 40v960h.291l-.145-.148L512.073 782 892 1011.852V52z" />
  </symbol>
  <symbol viewBox="0 0 1024 1024" id="checkbox-ticked">
    <title>Checkbox ticked</title>
    <desc>Checkbox with a tick</desc>
    <path d="M879.761 486.047v394.987H142.969V144.261h736.792v27.52c29.927-11.917 63.815-10.858 93.039 3.174V51.2H51.2v921.6h921.6V393.003l-93.039 93.044z" />
    <path d="M961.275 240.021c-21.339-21.339-55.881-21.343-77.222.001L457.42 666.678l-155.449-155.43c-21.338-21.338-55.88-21.342-77.222.004-21.338 21.34-21.34 55.881.004 77.222L448.367 812.06c5.004 5.003 13.116 5.003 18.119-.001l494.79-494.816c21.339-21.339 21.343-55.88-.001-77.222z"
    />
  </symbol>
  <symbol viewBox="0 0 1024 1024" id="checkbox-unticked">
    <title>Checkbox unticked</title>
    <desc>An empty checkbox</desc>
    <path d="M51.2 972.8V51.2h921.6v921.6H51.2zm91.769-91.767h736.792V144.261H142.969v736.772z" />
  </symbol>
  <symbol viewBox="0 0 1024 1024" id="cog">
    <title>Configure</title>
    <desc>A large and small cog aligned closely</desc>
    <path d="M909.512 168.046l.131-.175 60.279-4.1 37.808 61.457-30.839 51.955-.216.038 1.416 50.71.217.026L1012 378.11l-34.319 63.471-60.414-.73-.141-.168-43.208 26.581.086.201-26.589 54.254-72.127 2.014-29.575-52.685.075-.206-44.624-24.128-.131.175-60.28 4.1-37.808-61.457 30.839-51.956.216-.038-1.416-50.71-.217-.026-33.691-50.154 34.319-63.471 60.414.73.141.168 43.208-26.581-.086-.201 26.589-54.254 72.127-2.014 29.575 52.685-.075.206 44.624 24.13zm-160.615 47.59c-50.669 31.171-66.475 97.516-35.304 148.185 31.171 50.669 97.516 66.475 148.185 35.304 50.669-31.171 66.475-97.516 35.304-148.185-31.171-50.669-97.515-66.475-148.185-35.304zm-59.77 292.07l-76.858-20.008-49.492-83.775 19.555-76.988-81.595-54.429-63.567 47.601-96.357-13.538-47.986-63.271-93.435 29.841-2.413 79.388-70.662 66.894-79.395-1.939L12 509.136l60.562 51.39 8.244 96.955-51.018 60.871 49.898 84.441 77.93-15.305 80.935 54.002 15.787 77.834 97.127 13.648 36.62-70.484 92.685-29.607 70.697 36.194 71.226-67.438-32.268-72.56 34.633-90.925 72.381-32.708-8.312-97.738zM365.292 756.974c-4.958.426-9.874.633-14.762.633-88.326 0-163.451-67.706-171.076-157.339-8.045-94.597 62.123-177.801 156.713-185.845 4.958-.42 9.874-.619 14.762-.619 88.34 0 163.451 67.699 171.076 157.339 8.044 94.589-62.117 177.786-156.713 185.831z"
    />
  </symbol>
  <symbol viewBox="0 0 1024 1024" id="content-type-content-collection">
    <title>Content Collection</title>
    <desc>Multiple pages slightly offset from each other</desc>
    <path d="M608 378v484H200V378h408m64-64H136v612h536V314zm108-108H216v60h504v510h60V206zM888 98H324v60h504v510h60V98z" />
  </symbol>
  <symbol viewBox="0 0 1024 1024" id="content-type-ed-e-newsletter">
    <title>Ed-e-Newsletter</title>
    <desc>Newsletter page rolled in half</desc>
    <path d="M383.335 265.017V385.3H162.611V265.017h220.724m40.094-40.094H122.517v200.472h300.912V224.923zm429.153 236.388V138.117c0-14.761-11.967-26.73-26.73-26.73H29.228c-14.761 0-26.73 11.969-26.73 26.73v669.762c0 58.208 47.186 105.394 105.394 105.394H917.9c.01 0 .017.003.027.003 57.203 0 103.576-46.374 103.576-103.576V461.311H852.582zM108.584 873.179c-36.448 0-65.993-29.545-65.993-65.993V151.481h769.896v656.591c.047 24.724 8.94 47.154 23.236 65.107H108.584zm872.824-63.48c0 35.004-28.478 63.482-63.482 63.482h-.01v-.002h-.015c-34.997-.015-63.46-28.483-63.46-63.479V501.406h126.966v308.293zM732.576 487.248h-610.06v40.094h610.06v-40.094zm0 122.809h-610.06v40.094h610.06v-40.094zm-162.093 122.81H122.517v40.094h447.966v-40.094zm162.093-368.429h-233.97v40.094h233.97v-40.094zm0-122.809h-233.97v40.094h233.97v-40.094z"
    />
  </symbol>
  <symbol viewBox="0 0 1024 1024" id="content-type-service-page">
    <title>Service</title>
    <desc>Document with a turned down corner</desc>
    <path d="M316.77 458.363h390.493v40.96H316.77zM316.77 598.159h390.493v40.96H316.77zM316.77 737.954h224.9v40.96h-224.9z" />
    <path d="M821.877 346.512L586.418 111.053a27.305 27.305 0 0 0-19.309-7.995H221.47c-15.082 0-27.309 12.222-27.309 27.304V894.95c0 15.081 12.227 27.308 27.309 27.308h581.098c15.077 0 27.304-12.227 27.304-27.308V365.82a27.298 27.298 0 0 0-7.995-19.308zM605.845 196.516l130.564 130.568H605.845V196.516zm177.333 679.047H240.856V149.748h318.221l.074.074v210.301c0 7.541 6.111 13.652 13.652 13.652h210.301l.074.078v501.71z"
    />
  </symbol>
  <symbol viewBox="0 0 1024 1024" id="cta-external-link-new-window">
    <title>External link new window</title>
    <desc>Arrow pointing from one page to the next</desc>
    <path d="M643.375 707.129v60.113c0 40.547-33.099 73.578-73.662 73.578H229.835c-40.598 0-73.596-33.031-73.596-73.578V427.298c0-40.614 32.998-73.563 73.596-73.563h122.492v-55.246H229.835c-71.195 0-128.858 57.68-128.858 128.809v339.944C100.977 838.321 158.64 896 229.835 896h339.878c71.129 0 128.825-57.679 128.825-128.758v-60.113h-55.163z"
    />
    <path d="M782.099 499.159c-30.298 19.366-102.026 65.763-163.723 108.393-6.499 4.416-15.266-.134-15.266-7.95V544.69c-22.998-1.383-39.731-1.383-64.862-1.383-100.76 0-198.521 13.133-258.583 90.661v-22.183c0-43.88 58.696-178.055 257.983-198.453 12.565-1.3 45.53-1.3 65.462-1v-48.297c0-7.649 8.3-12.232 14.732-8.267 31.731 19.766 108.06 69.313 166.123 121.809 6.667 5.967 5.667 16.65-1.866 21.582z"
    />
    <path d="M792.432 128H452.987c-72.228 0-130.691 58.497-130.691 130.608v168.289c18.865-14.782 40.63-28.314 65.362-39.997V258.608c0-36.015 29.298-65.329 65.329-65.329h339.444c35.998 0 65.229 29.314 65.229 65.329v342.161c0 36.015-29.231 65.379-65.229 65.379H452.987c-25.965 0-48.297-15.398-58.763-37.364-22.565 8.816-40.564 20.832-54.83 36.364 22.432 39.565 64.862 66.329 113.593 66.329h339.444c72.096 0 130.592-58.546 130.592-130.708V258.608c0-72.111-58.496-130.608-130.591-130.608z"
    />
  </symbol>
  <symbol viewBox="0 0 1024 1024" id="cta-external-link-same-window">
    <title>External link same window</title>
    <desc>Arrow pointing into a page</desc>
    <path d="M724.111 593.378C688.563 616.26 604.469 670.69 531.957 720.72c-7.566 5.232-17.865-.217-17.865-9.433v-64.379c-26.982-1.467-46.697-1.467-76.145-1.467-118.209 0-232.969 15.432-303.48 106.359v-26.031c0-51.613 68.879-209.054 302.697-232.969 14.932-1.5 53.496-1.5 76.928-1.199l-.033-56.696c0-8.95 9.766-14.433 17.332-9.683 37.231 23.265 126.824 81.327 194.953 142.99 7.834 7.051 6.666 19.5-2.233 25.166z"
    />
    <path d="M736.211 157.923H337.853c-84.661 0-153.323 68.662-153.323 153.29v197.504c22.132-17.382 47.613-33.165 76.661-46.914v-150.59c0-42.247 34.382-76.628 76.662-76.628h398.358c42.197 0 76.695 34.381 76.695 76.628v401.591c0 42.247-34.498 76.661-76.695 76.661H337.853c-30.448 0-56.597-17.981-68.962-43.764-26.415 10.35-47.514 24.481-64.263 42.681 26.298 46.447 76.061 77.695 133.225 77.695h398.358c84.693 0 153.322-68.563 153.322-153.273V311.213c0-84.628-68.629-153.29-153.322-153.29z"
    />
  </symbol>
  <symbol viewBox="0 0 1024 1024" id="cta-internal-link-new-window">
    <title>Internal link new window</title>
    <desc>Two pages overlapping</desc>
    <path d="M793.672 128H453.556c-71.225 0-128.772 57.629-128.772 128.821v41.536h-94.356c-71.159 0-128.838 57.697-128.838 128.805v340C101.59 838.404 159.269 896 230.428 896h340.017c71.191 0 128.871-57.596 128.871-128.838v-41.486h94.355c71.025 0 128.738-57.646 128.738-128.888V256.821C922.41 185.629 864.697 128 793.672 128zM644.066 767.162c0 40.671-32.951 73.755-73.621 73.755H230.428c-40.572 0-73.621-33.084-73.621-73.755v-340c0-40.588 33.049-73.572 73.621-73.572h94.356v243.197c0 71.242 57.546 128.888 128.772 128.888h190.511v41.487zm213.842-170.374c0 35.579-28.791 64.419-64.236 64.419H453.556c-35.546 0-64.402-28.84-64.402-64.419V256.821c0-35.562 28.857-64.419 64.402-64.419h340.116c35.445 0 64.236 28.857 64.236 64.419v339.967z"
    />
  </symbol>
  <symbol viewBox="0 0 1024 1024" id="cta-internal-link-same-window">
    <title>Internal link same window</title>
    <desc>Thick chevron arrow pointing right</desc>
    <path d="M392.977 866.068l325.022-325.014c16.034-16.033 16.035-42.028.002-58.062L392.977 157.931l-99.002 98.993 252.216 252.232a4.055 4.055 0 0 1 0 5.736L293.975 767.076l99.002 98.992z" />
  </symbol>
  <symbol viewBox="0 0 1024 1024" id="cta-log-out">
    <title>Log out</title>
    <desc>Left square bracket with an arrow pointing right</desc>
    <path d="M686.623 662.972a5.468 5.468 0 0 1-2.539-.629c-2.218-1.155-3.643-3.708-3.643-6.52l-.017-89.523H413.576c-2.102 0-3.8-1.965-3.8-4.387V461.877a4.107 4.107 0 0 1 4.107-4.107h266.524l-.017-89.717c0-2.805 1.415-5.351 3.622-6.509a5.479 5.479 0 0 1 2.556-.642c1.469 0 2.918.605 4.066 1.763l132.724 134.077c3.574 3.612 5.631 8.826 5.645 14.317.017 5.491-2.013 10.723-5.57 14.358L690.717 661.179c-1.151 1.178-2.614 1.793-4.094 1.793zm-5.361 130.55a4.107 4.107 0 0 0-4.107-4.107H348.318c-42.197 0-76.695-34.381-76.695-76.628V311.196c0-42.247 34.498-76.661 76.695-76.661h328.837a4.107 4.107 0 0 0 4.107-4.107V162.03a4.107 4.107 0 0 0-4.107-4.107H348.318c-84.693 0-153.322 68.563-153.322 153.273v401.591c0 84.628 68.629 153.29 153.322 153.29h328.837a4.107 4.107 0 0 0 4.107-4.107v-68.448z"
    />
  </symbol>
  <symbol viewBox="0 0 1024 1024" id="cta-service-now">
    <title>My service requests</title>
    <desc>Headset with boom microphone</desc>
    <path d="M986.354 612.433c0-33.532-11.821-96.039-58.168-140.316v-31.314c0-119.796-35.815-223.113-103.573-298.78C750.782 59.578 643.162 16 513.386 16c-129.92 0-238.001 43.839-312.559 126.777-68.699 76.421-105.011 180.435-105.011 300.798v28.542c-46.349 44.276-58.17 106.783-58.17 140.316 0 81.714 59.004 152.101 134.085 179.893h53.924c6.888 0 12.471-5.584 12.471-12.472V442.246c0-6.888-5.584-12.471-12.471-12.471h-49.6c4.767-163.892 95.269-333.739 337.33-333.739 241.384 0 330.81 170.336 334.633 333.739h-49.674c-6.888 0-12.471 5.584-12.471 12.471v337.608c0 6.888 5.584 12.472 12.471 12.472h37.115c-4.858 42.262-29.08 74.055-73.681 96.844-39.338 20.1-93.297 32.649-160.902 37.5-9.383-15.982-26.738-26.718-46.61-26.718H454.223c-29.837 0-54.024 24.187-54.024 54.024S424.386 1008 454.223 1008h100.044c20.926 0 39.06-11.906 48.033-29.306 75.852-5.296 137.276-19.758 183.15-43.199 67.36-34.418 102.966-89.606 102.966-159.598v-.967c57.03-34.283 97.938-94.461 97.938-162.497z"
    />
  </symbol>
  <symbol viewBox="0 0 1024 1024" id="ed-e-newsletter-urgent-triangle-backdrop">
    <title>Urgent</title>
    <desc>Exclamation mark symbol on a filled triangle</desc>
    <path d="M283.877 764.489c-20.576 0-38.567-9.945-48.16-26.606-9.515-16.504-9.123-37.001 1.077-54.777l228.174-395.188c10.239-17.776 27.839-28.407 47.025-28.407 19.205 0 36.805 10.63 47.064 28.446l228.095 395.07c10.298 17.815 10.67 38.411.998 55.032-9.475 16.484-27.467 26.429-48.023 26.429h-456.25z"
    />
  </symbol>
  <symbol viewBox="0 0 1024 1024" id="ed-e-newsletter-urgent-triangle">
    <title>Triangle</title>
    <desc>A filled triangle</desc>
    <path d="M752.422 703.078L524.299 307.962c-3.107-5.392-7.476-8.359-12.303-8.359-4.822 0-9.19 2.966-12.303 8.359L271.571 703.078c-3.102 5.389-3.492 10.652-1.078 14.826 2.408 4.185 7.166 6.49 13.386 6.49h456.239c6.22 0 10.979-2.305 13.387-6.49 2.414-4.174 2.024-9.437-1.083-14.826zM511.904 667.53c-14.94 0-27.192-12.472-27.192-27.373 0-14.977 12.166-27.373 27.192-27.373 14.929 0 27.376 12.444 27.376 27.373 0 14.932-12.441 27.373-27.376 27.373zm25.593-143.29a673.946 673.946 0 0 1-8.324 32.549c-3.2 11.194-5.63 24.661-7.046 40.08-.097 1.095-.201 2.187-.304 3.279-6.444.143-12.894.143-19.349 0-.081-1.101-.166-2.21-.247-3.308-.797-10.924-3.767-24.383-8.055-40.097a685.841 685.841 0 0 1-8.032-32.544c-4.421-19.851-5.51-33.785-4.713-42.471.803-8.413 4.26-15.035 9.879-19.928 5.658-4.931 12.498-7.284 20.736-7.284 7.854 0 14.585 2.399 20.438 7.353 5.819 4.956 9.38 11.429 10.142 19.495.694 7.698-.464 21.753-5.125 42.876z"
    />
  </symbol>
  <symbol viewBox="0 0 1024 1024" id="ellipsis-vertical">
    <title>Additional options</title>
    <desc>Vertical ellipsis</desc>
    <path d="M637 887c0-69.097-55.903-125-125-125s-125 55.903-125 125 55.903 125 125 125 125-55.903 125-125zm0-375c0-69.097-55.903-125-125-125s-125 55.903-125 125 55.903 125 125 125 125-55.903 125-125zm0-375c0-69.097-55.903-125-125-125S387 67.903 387 137s55.903 125 125 125 125-55.903 125-125z"
    />
  </symbol>
  <symbol viewBox="0 0 1024 1024" id="envelope">
    <title>Email</title>
    <desc>Envelope</desc>
    <path d="M860.178 157.923H163.822c-54.463 0-98.613 44.151-98.613 98.613v510.929c0 54.462 44.151 98.613 98.613 98.613h696.356c54.462 0 98.613-44.15 98.613-98.613V256.536c0-54.463-44.15-98.613-98.613-98.613zM517.194 564.479c-3.938 3.938-10.322 3.938-14.259 0L173.214 234.758h673.701L517.194 564.479zm-177.761-54.84l-197.39 197.39v-394.78l197.39 197.39zm54.331 54.33L502.935 673.14c3.938 3.938 10.321 3.938 14.259 0l109.171-109.171 225.273 225.273H168.491l225.273-225.273zm286.931-54.331l201.26-201.26v402.521l-201.26-201.261z"
    />
  </symbol>
  <symbol viewBox="0 0 1024 1024" id="external-link">
    <title>External link same window</title>
    <desc>Arrow pointing to the top right corner of a page</desc>
    <path d="M964.889 663.041c-25.982 0-47.11 21.125-47.11 47.11v131.122c0 42.203-34.349 76.53-76.552 76.53H182.775c-42.216 0-76.555-34.326-76.555-76.53V182.824c0-42.216 34.339-76.555 76.555-76.555h121.481c25.972 0 47.11-21.138 47.11-47.11s-21.138-47.11-47.11-47.11H182.775C88.605 12.049 12 88.652 12 182.824v658.449c0 94.122 76.605 170.677 170.775 170.677h658.55c94.122 0 170.674-76.529 170.674-170.579v-131.22c0-25.984-21.125-47.11-47.11-47.11zM522.496 502.033c-21.394-21.397-21.394-56.238 0-77.648l306.339-306.337-258.616-.284c-28.756 0-52.286-23.47-52.459-52.336-.098-14.035 5.327-27.284 15.213-37.284 9.912-10.023 23.138-15.593 37.223-15.678h383.219c32.355 0 58.583 26.229 58.583 58.583V441.02c.173 29.04-23.357 52.816-52.753 52.987-28.806 0-52.384-23.48-52.557-52.213l-.392-245.684-306.143 305.872c-20.756 20.709-56.949 20.784-77.657.051z"
    />
  </symbol>
  <symbol viewBox="0 0 1024 1024" id="home">
    <title>Home</title>
    <desc>House</desc>
    <path d="M512.178 318.094L225.091 536.776V829.44h223.661V666.994c0-33.911 27.488-61.408 61.399-61.408h2.007c34.541 0 62.529 27.996 62.529 62.537V829.44h224.577V536.776L512.178 318.094z" />
    <path d="M784.947 398.366V224.657H672.781v88.237L517.491 194.56 147.348 469.483l42.031 56.489 323.186-245.584 321.951 245.214 42.136-57.355z" />
  </symbol>
  <symbol viewBox="0 0 1024 1024" id="information-outline">
    <title>Information</title>
    <desc>Letter i on an outlined circle</desc>
    <path d="M511.962 12C235.875 12 12 235.823 12 512.019 12 788.1 235.875 1012 511.962 1012 788.14 1012 1012 788.1 1012 512.019 1012 235.823 788.14 12 511.962 12zm0 921.706c-232.904 0-421.703-188.788-421.703-421.687 0-233.015 188.799-421.773 421.703-421.773 232.914 0 421.789 188.758 421.789 421.773 0 232.899-188.876 421.687-421.789 421.687zm.597-676.722c30.517 0 55.355 24.837 55.355 56.773 0 30.516-24.838 55.358-55.355 55.358-31.937 0-56.78-24.842-56.78-55.358.001-31.936 24.844-56.773 56.78-56.773zm51.036 509.991H460.1V446.987h103.495v319.988z"
    />
  </symbol>
  <symbol viewBox="0 0 1024 1024" id="information-solid">
    <title>Information</title>
    <desc>Letter i on a filled circle</desc>
    <path d="M511.962 12C235.875 12 12 235.822 12 512.019 12 788.1 235.875 1012 511.962 1012 788.14 1012 1012 788.1 1012 512.019 1012 235.822 788.14 12 511.962 12zm51.632 754.975H460.1V446.987h103.495v319.988zm-51.035-397.86c-31.937 0-56.78-24.842-56.78-55.358 0-31.936 24.843-56.773 56.78-56.773 30.517 0 55.355 24.837 55.355 56.773.001 30.516-24.838 55.358-55.355 55.358z"
    />
  </symbol>
  <symbol viewBox="0 0 1024 1024" id="lightbox-expand">
    <title>Maximise</title>
    <desc>Two arrows pointing away diagonally</desc>
    <path d="M592.122 115.201h292.557c13.322 0 24.121 10.799 24.121 24.118v292.556c0 14.777-11.969 26.742-26.742 26.742-14.774 0-26.742-11.969-26.742-26.742V206.507L628.797 433.026c-10.447 10.447-27.379 10.447-37.824 0-10.445-10.445-10.445-27.377 0-37.821l226.522-226.522H592.122c-14.774 0-26.742-11.966-26.742-26.742.001-14.775 11.969-26.74 26.742-26.74zM458.618 882.059c0-14.776-11.968-26.744-26.742-26.744H206.504l226.522-226.52c10.445-10.447 10.445-27.377 0-37.823-10.445-10.445-27.377-10.445-37.824 0L168.683 817.494V592.122c0-14.772-11.968-26.74-26.742-26.74s-26.741 11.965-26.741 26.74v292.557c0 13.322 10.798 24.12 24.12 24.12h292.557c14.773 0 26.741-11.966 26.741-26.74z"
    />
  </symbol>
  <symbol viewBox="0 0 1024 1024" id="navigation-close">
    <title>Close</title>
    <desc>X mark</desc>
    <path d="M622.284 512.006l234.854-234.863c30.534-30.55 30.6-79.98.163-110.4-30.469-30.485-79.915-30.42-110.376.098l-234.96 234.847-234.83-234.848c-30.518-30.518-79.932-30.583-110.4-.098-30.436 30.42-30.436 79.851.065 110.368l234.912 234.895L166.8 746.854c-30.501 30.518-30.501 79.98-.065 110.416 30.469 30.453 79.883 30.42 110.4-.098l234.831-234.928 234.96 234.928c30.461 30.518 79.907 30.551 110.376.098 30.437-30.469 30.371-79.898-.163-110.416L622.284 512.006z"
    />
  </symbol>
  <symbol viewBox="0 0 1024 1024" id="navigation-hamburger">
    <title>Menu</title>
    <desc>Stack of three solid horizontal lines</desc>
    <path d="M101.881 161.04H922.12c43.196 0 78.157 34.928 78.157 78.011 0 43.034-34.961 77.979-78.157 77.979H101.881c-43.181 0-78.158-34.944-78.158-77.979 0-43.083 34.977-78.011 78.158-78.011zM23.723 511.983c0 43.132 34.978 78.027 78.158 78.027H922.12c43.196 0 78.157-34.896 78.157-78.027 0-43.066-34.961-77.945-78.157-77.945H101.881c-43.181 0-78.158 34.879-78.158 77.945zm0 273.015c0 43.001 34.978 77.962 78.158 77.962H922.12c43.196 0 78.157-34.961 78.157-77.962 0-43.099-34.961-78.027-78.157-78.027H101.881c-43.181 0-78.158 34.928-78.158 78.027z"
    />
  </symbol>
  <symbol viewBox="0 0 1024 1024" id="navigation-minus">
    <title>Contract</title>
    <desc>Minus symbol</desc>
    <path d="M254.412 434.022h515.16c43.164 0 78.125 34.912 78.125 77.962 0 43.115-34.961 77.995-78.125 77.995h-515.16c-43.148 0-78.109-34.88-78.109-77.995 0-43.05 34.961-77.962 78.109-77.962z" />
  </symbol>
  <symbol viewBox="0 0 1024 1024" id="navigation-plus">
    <title>Expand</title>
    <desc>Plus symbol</desc>
    <path d="M769.572 434.022H589.99V254.448c0-43.164-34.943-78.142-77.994-78.142-43.05 0-77.979 34.978-77.979 78.142v179.573h-179.59c-43.147 0-78.125 34.912-78.125 77.978 0 43.115 34.978 77.979 78.125 77.979h179.59v179.607c0 43.115 34.929 78.108 77.979 78.108 43.051 0 77.994-34.993 77.994-78.108V589.979h179.582c43.164 0 78.125-34.863 78.125-77.979 0-43.066-34.961-77.978-78.125-77.978z"
    />
  </symbol>
  <symbol viewBox="0 0 1024 1024" id="pencil">
    <title>Edit</title>
    <desc>Pencil symbol</desc>
    <path d="M1005.546 221.83L898.41 328.966 695.034 125.59 802.17 18.454c8.023-8.023 20.401-8.652 27.648-1.406l177.134 177.134c7.246 7.247 6.616 19.625-1.406 27.648zm-364.988-41.764l203.376 203.376 37.428-37.428-203.375-203.377-37.429 37.429zm190.665 216.087l-286.76 286.76L253.17 974.206a9.421 9.421 0 0 1-5.222 2.648l-226.901 35.054a7.85 7.85 0 0 1-8.956-8.955l35.054-226.901a9.421 9.421 0 0 1 2.648-5.222l291.293-291.293 286.76-286.76 203.377 203.376zM238.695 901.52l-.214-53.676-62.076-.249-.249-62.076-53.676-.214-17.032 17.032-16.302 105.522 26.994 26.994 105.523-16.302 17.032-17.031zm425.177-603.716l-31.162-31.162-470.308 470.306 62.032.293 439.438-439.437z"
    />
  </symbol>
  <symbol viewBox="0 0 1024 1024" id="radio-button-marked">
    <title>Radio button (marked)</title>
    <desc>Outline of a circle with a centered filled circle</desc>
    <path d="M512 51.2C257.507 51.2 51.2 257.507 51.2 512S257.507 972.8 512 972.8 972.8 766.493 972.8 512 766.493 51.2 512 51.2zm0 829.44c-203.268 0-368.64-165.372-368.64-368.64S308.732 143.36 512 143.36 880.64 308.731 880.64 512 715.268 880.64 512 880.64z"
    />
    <ellipse cx="511.993" cy="512" rx="253.438" ry="253.438" />
  </symbol>
  <symbol viewBox="0 0 1024 1024" id="radio-button-unmarked">
    <title>Radio button</title>
    <desc>Outline of a circle</desc>
    <path d="M512 143.36c203.268 0 368.64 165.371 368.64 368.64S715.268 880.64 512 880.64 143.36 715.268 143.36 512 308.732 143.36 512 143.36m0-92.16C257.507 51.2 51.2 257.507 51.2 512S257.507 972.8 512 972.8 972.8 766.493 972.8 512 766.493 51.2 512 51.2z"
    />
  </symbol>
  <symbol viewBox="0 0 1024 1024" id="reorder">
    <title>Reorder</title>
    <desc>Three horizontal lines stacked vertically</desc>
    <path d="M1012 512c0 60.751-49.249 110-110 110H268.758c-60.751 0-110-49.249-110-110s49.249-110 110-110H902c60.751 0 110 49.249 110 110zM804 12H122C61.249 12 12 61.249 12 122s49.249 110 110 110h682c60.751 0 110-49.249 110-110S864.751 12 804 12zm0 780H122c-60.751 0-110 49.249-110 110s49.249 110 110 110h682c60.751 0 110-49.249 110-110s-49.249-110-110-110z"
    />
  </symbol>
  <symbol viewBox="0 0 1024 1024" id="resource-type-business-document">
    <title>Business document</title>
    <desc>Document with a turned down corner in front of another document</desc>
    <path d="M857.657 129.708v681.435c0 15.081-12.227 27.308-27.308 27.308h-19.386V149.094H254.464v-19.386c0-15.081 12.227-27.308 27.308-27.308h548.577c15.082 0 27.308 12.227 27.308 27.308zm-83.136 208.015v556.569c0 15.081-12.227 27.308-27.308 27.308H193.651c-15.081 0-27.308-12.227-27.308-27.308V212.844c0-15.081 12.227-27.308 27.308-27.308h430.072a27.312 27.312 0 0 1 19.419 8.106l123.49 124.883a27.307 27.307 0 0 1 7.889 19.198zM619.008 235.647v91.099h90.083l-90.083-91.099zm108.818 639.259V373.44H599.622c-15.081 0-27.308-12.227-27.308-27.308V232.231H213.041v642.675h514.785zm-75.911-417.194H288.948v40.96h362.967v-40.96zm0 139.796H288.948v40.96h362.967v-40.96zM486.322 737.3H288.948v40.96h197.374V737.3z"
    />
  </symbol>
  <symbol viewBox="0 0 1024 1024" id="resource-type-content-collection">
    <title>Content Collection</title>
    <desc>Multiple pages slightly offset from each other</desc>
    <path d="M608 378v484H200V378h408m64-64H136v612h536V314zm108-108H216v60h504v510h60V206zM888 98H324v60h504v510h60V98z" />
  </symbol>
  <symbol viewBox="0 0 1024 1024" id="resource-type-service">
    <title>Service</title>
    <desc>Spanner overlayed on a hexagon outline</desc>
    <path d="M130.535 899.934c14.853 14.867 35.274 21.666 56.262 21.666 25.894 0 52.659-10.34 70.959-28.644l203.889-222.939c1.942-1.938 6.996-9.657 6.996-9.657 18.26 4.741 38.654 7.433 59.673 7.433 48.712 0 100.826-14.447 137.788-51.36 52.275-52.409 68.798-125.827 50.226-189.831l-99.407 99.366-89.638-27.818-27.751-89.62 100.433-100.474c-17.858-5.567-36.511-8.353-55.271-8.353-49.181 0-99.13 19.162-137.676 57.664-52.735 52.717-59.579 136.444-44.1 196.849 0 0-8.112 6.237-9.46 7.607l-222.923 203.89c-37.1 37.064-37.082 97.143 0 134.221zm67.258-114.662H197.998c22.22-.004 40.247 18.028 40.247 40.198 0 22.385-18.005 40.39-40.35 40.413-22.256 0-40.265-18.005-40.328-40.31.001-22.255 17.984-40.301 40.226-40.301zm623.342-582.72L447.367 102.4 173.752 376.02l68.852 256.968 42.323-38.703-54.409-203.054 232.06-232.06 317.002 84.937 84.942 317.002-232.065 232.06-203.362-54.494L390.383 781l257.285 68.941 273.616-273.62-100.149-373.769z"
    />
  </symbol>
  <symbol viewBox="0 0 1024 1024" id="resource-type-software">
    <title>Software</title>
    <desc>Application window with a mouse pointer action</desc>
    <path d="M815.251 708.868L957.014 833.62l-47.837 54.575-141.898-124.854-29.487 79.401-129.417-266.748 281.715 93.057-74.839 39.817zm68.125-480.887v395.715l-46.694-15.422V367.347H184.508v402.534h472.408l22.655 46.694H165.122c-15.085 0-27.308-12.227-27.308-27.308V227.981c0-15.081 12.223-27.308 27.308-27.308h690.946c15.082 0 27.308 12.227 27.308 27.308zm-614.498 61.264c0-18.67-15.09-33.923-33.899-33.923-18.76 0-33.853 15.253-33.853 33.923 0 18.809 15.094 33.919 33.853 33.919a33.805 33.805 0 0 0 33.899-33.919zm105.939 0c0-18.67-15.106-33.923-33.845-33.923s-33.923 15.253-33.923 33.923c0 18.809 15.184 33.919 33.923 33.919s33.845-15.11 33.845-33.919zm106 0c0-18.67-15.11-33.923-33.849-33.923-18.739 0-33.919 15.253-33.919 33.923 0 18.809 15.18 33.919 33.919 33.919 18.739 0 33.849-15.11 33.849-33.919zm102.13 268.681a11.967 11.967 0 0 0 0-16.998l-76.439-76.439c-4.641-4.682-12.321-4.682-16.962 0a11.974 11.974 0 0 0 0 16.998l76.444 76.439c2.318 2.343 5.398 3.523 8.479 3.523s6.159-1.18 8.478-3.523zm-.119 41.98c0-6.64-5.362-12.018-12.001-12.018H480.83c-6.644 0-12.001 5.378-12.001 12.018s5.358 12.022 12.001 12.022h89.997c6.639 0 12.001-5.382 12.001-12.022zm-36.839 95.941l36.479-36.479a11.974 11.974 0 0 0 0-16.998c-4.641-4.682-12.321-4.682-16.962 0l-36.479 36.479a11.974 11.974 0 0 0 0 16.998c2.322 2.339 5.398 3.523 8.479 3.523s6.16-1.185 8.483-3.523zm90.959-167.121v-91.058c0-6.64-5.362-12.022-12.001-12.022-6.64 0-12.001 5.382-12.001 12.022v91.058c0 6.64 5.362 12.022 12.001 12.022 6.64-.001 12.001-5.383 12.001-12.022z"
    />
  </symbol>
  <symbol viewBox="0 0 1024 1024" id="resource-type-web-link">
    <title>Web link</title>
    <desc>A globe wrapped with an arrow</desc>
    <path d="M918.297 618.566c1.057-19.722-2.613-39.92-8.135-49.218l11.551 15.02c61.846 89.096-3.076 163.787-143.217 168.489-4.682.156-9.273.225-13.787.225-75.379 0-132.547-20.902-136.639-21.647l20.742-89.932c30.523 7.868 95.617 17.666 151.061 17.666 50.337.001 117.118-15.626 118.424-40.603zm-333.144 29.495c-20.57-37.22-69.243-125.637-109.736-204.6-2.146-4.137-6.21-6.222-10.277-6.222-3.953 0-7.959 2.003-10.113 6.07l-30.732 57.131c-24.699-11.53-42.16-20.947-68.235-34.976-71.168-38.228-101.831-63.931-109.781-71.881-26.214-26.219-63.496-73.065-66.273-101.184-1.425-14.385 13.312-36.594 29.196-41.701l-.008-.016c-13.828 2.884-83.239 10.342-83.239 100.262 0 63.3 26.288 127.972 70.439 175.403 22.18 24.764 49.914 49.726 86.11 74.232 12.62 8.43 46.887 26.821 67.756 37.761l-27.03 50.266c-4.19 7.717 1.372 16.9 9.925 16.9.242 0 .479 0 .778-.037 44.196-2.929 151.413-11.723 241.296-33.997 10.284-2.48 15.13-14.117 9.924-23.411zm-65.315-458.949c178.041 0 322.888 144.847 322.888 322.888 0 35.062-5.804 68.756-16.187 100.393 23.056-1.196 43.119-4.825 57.078-8.839 7.373-29.356 11.711-59.912 11.711-91.554 0-207.385-168.125-375.489-375.489-375.489-120.963 0-228.275 57.447-296.953 146.281 5.419 14.189 15.938 31.052 29.671 48.288 58.13-85.603 156.238-141.968 267.281-141.968zm162.021 601.736c-47.69 27.816-102.941 44.036-162.022 44.036-146.232 0-269.89-97.792-309.474-231.355-17.297-14.578-33.37-29.688-47.751-45.744-5.976-6.427-11.575-13.161-16.966-20.038 13.287 195.318 175.518 349.742 374.191 349.742 92.316 0 176.731-33.456 242.123-88.724-26.525-.642-53.272-3.305-80.101-7.917z"
    />
  </symbol>
  <symbol viewBox="0 0 1024 1024" id="search-filter-outline">
    <title>Display filter</title>
    <desc>Outline of a funnel symbol</desc>
    <path class="st0" d="M796.46 234.493v28.747L576.253 473.167l-1.116 1.064-1.066 1.115c-16.587 17.345-25.722 40.114-25.722 64.113v118.719l-68.082 58.566V539.598c0-24.32-9.346-47.309-26.317-64.729l-1.075-1.104-1.125-1.053-224.21-209.836v-28.383H796.46m61.69-66.732h-692.3a5.042 5.042 0 0 0-5.042 5.042v116.831a5.04 5.04 0 0 0 1.597 3.681l243.745 228.12a26.028 26.028 0 0 1 7.384 18.163v311.589c0 3.011 2.468 5.052 5.07 5.052a4.952 4.952 0 0 0 3.26-1.23l191.463-164.703a5.04 5.04 0 0 0 1.754-3.822V539.459a26.03 26.03 0 0 1 7.218-17.991l239.33-228.157a5.042 5.042 0 0 0 1.563-3.649V172.803a5.042 5.042 0 0 0-5.042-5.042z"
    />
  </symbol>
  <symbol viewBox="0 0 1024 1024" id="search-filter-solid">
    <title>Filter search</title>
    <desc>Funnel symbol</desc>
    <path class="st0" d="M858.15 167.761h-692.3a5.042 5.042 0 0 0-5.042 5.042v116.831a5.04 5.04 0 0 0 1.597 3.681l243.745 228.12a26.028 26.028 0 0 1 7.384 18.163v311.589c0 3.011 2.468 5.052 5.07 5.052a4.952 4.952 0 0 0 3.26-1.23l191.463-164.703a5.04 5.04 0 0 0 1.754-3.822V539.459a26.03 26.03 0 0 1 7.218-17.991l239.33-228.157a5.043 5.043 0 0 0 1.563-3.65V172.803a5.042 5.042 0 0 0-5.042-5.042z"
    />
  </symbol>
  <symbol viewBox="0 0 1024 1024" id="search-magnifying-glass">
    <title>Search</title>
    <desc>Magnifying glass</desc>
    <path d="M406.254 614.019c-109.977 0-199.446-89.453-199.446-199.512 0-109.961 89.469-199.447 199.446-199.447s199.511 89.486 199.511 199.447c0 51.822-19.775 100.943-55.664 138.248-37.971 39.518-89.111 61.264-143.847 61.264zm471.459 181.119L639.391 561.739c27.946-44.01 42.611-94.857 42.611-147.233 0-152.018-123.715-275.781-275.748-275.781-152.002 0-275.7 123.73-275.7 275.781 0 152.083 123.698 275.716 275.7 275.716 58.089 0 113.671-17.969 160.985-52.148L804.21 870.235c9.831 9.701 22.885 15.039 36.719 15.039 14.291 0 27.637-5.631 37.533-15.853 20.279-20.67 19.922-54.003-.749-74.283z"
    />
  </symbol>
  <symbol viewBox="0 0 1024 1024" id="topic-administration-and-finance">
    <title>Administration and finance</title>
    <desc>A money bag with a coin resting in front</desc>
    <path d="M597.417 797.785V755.86c-29.246-.862-57.628-9.165-74.22-18.337l13.096-51.088c18.337 10.044 44.103 19.208 72.475 19.208 24.904 0 42.352-10.046 42.352-27.065 0-16.594-14.395-27.074-46.711-37.991-46.709-15.722-78.599-37.557-78.599-79.917 0-38.855 27.074-68.99 73.795-77.718v-41.489h42.787v38.428c29.263.871 48.908 7.429 63.757 14.412l-13.097 49.345c-10.917-5.24-31.443-15.295-62.876-15.295-28.375 0-37.556 12.671-37.556 24.904 0 13.97 15.286 23.579 52.396 37.112 52.406 18.337 72.922 42.35 72.922 82.084 0 38.865-27.065 71.625-77.735 80.353v44.976h-42.786zM382.657 523.334l-38.863-25.085c-81.488-48.493-203.169-1.611-276.953 106.696-36.465 53.524-55.931 114.071-54.794 170.513 1.157 57.665 23.569 104.27 63.257 131.317l31.814 20.943c23.066 15.713 49.96 23.162 78.399 23.162 70.866 0 151.257-46.247 205.471-125.803 75.964-111.491 72.23-246.855-8.331-301.743zm-110.705-15.031c23.589 0 44.569 6.15 62.366 18.28 31.548 21.494 52.889 57.448 53.846 105.438 1.015 50.443-14.214 107.909-47.307 156.477-46.87 68.79-123.802 112.629-186.905 112.629-23.598 0-44.588-6.15-62.376-18.271-31.557-21.502-52.396-58.5-53.362-106.488-1.005-50.445 16.64-109.512 49.733-158.08 46.879-68.79 120.892-109.975 184.005-109.985zm79.074 290.496c50.766-74.496 64.924-159.472 43.327-221.865 13.836 20.904 21.7 47.534 22.327 78.438 1.013 50.443-16.66 104.972-49.743 153.539-46.88 68.8-117.947 113.256-181.05 113.256-7.922 0-15.447-.939-22.744-2.37 65.284-3.801 137.809-47.498 187.883-120.998z"
    />
    <path d="M285.505 620.08l17.163-25.178-19.94-13.589-18.528 27.178c-25.671-9.108-51.742 2.046-69.093 27.499-18.907 27.767-13.799 52.198.947 77.33 10.187 17.409 12.215 28.856 4.805 39.726-7.6 11.154-20.215 12.196-31.823 4.293-13.219-9.013-21.133-23.198-25.197-35.604l-28.914 29.322c3.639 11.276 13.163 25.727 26.403 35.583l-18.717 27.464 19.94 13.589 20.08-29.473c27.511 10.368 54.746-2.502 72.099-27.965 17.739-26.042 18.905-48.293 2.672-76.949-11.249-20.65-14.082-31.804-7.847-40.959 5.457-8.017 15.398-13.399 28.619-4.388 14.651 9.98 19.72 23.086 22.469 29.985l28.136-28.184c-3.8-9.286-10.026-19.815-23.274-29.68z"
    />
    <path d="M96.323 625.254C78.63 651.684 65.307 681.1 57.819 712.06c-6.841 30.969-8.14 63.882 1.337 94.604 4.842 15.229 12.252 29.727 22.564 42.057 10.292 12.472 24.043 21.407 38.521 28.155 29.881 12.528 63.456 8.576 93.174-1.972l-.947-2.709c-29.32 10.214-62.11 13.787-90.9 1.506-13.941-6.624-27.16-15.295-37.005-27.387-9.865-11.961-16.955-26.024-21.57-40.827-9.031-29.879-7.6-62.071-.71-92.377 7.525-30.315 20.772-59.115 38.296-84.959 16.924-23.87 37.85-44.662 61.246-61.749 23.36-17.162 50.436-29.207 78.608-34.096 14.148-1.935 28.439-2.011 42.333.464 13.844 2.861 26.657 8.784 38.36 16.384 11.495 7.895 21.758 17.929 29.454 30.022 7.571 12.14 12.584 25.9 15.618 40.066 8.994 45.716-1.706 93.97-22.544 135.79l.606.305c22.166-41.262 34.742-89.516 26.998-137.052-5.04-29.234-18.791-58.944-43.981-77.793-12.794-8.869-27.453-14.764-42.616-17.749-15.266-2.482-30.713-2.114-45.772.217-60.395 11.433-110.062 52.968-142.566 102.294z"
    />
    <path d="M781.557 290.626v-54.424h-1.867L813.454 73.12h-76.163l-38.958 35.982c-2.143 1.999-5.535 1.999-7.695 0L651.69 73.12h-62.271l-38.96 35.982c-2.141 1.999-5.524 1.999-7.686 0L503.826 73.12h-76.173l33.774 163.082h-.369v53.648c-88.891 42.067-160.192 118.088-199.359 212.493l20.328-2.133 15.237 3.365c38.391-84.627 105.314-151.911 187.381-187.835h271.561c130.738 57.219 223.06 193.89 222.604 353.467-.549 190.508-132.083 227.4-359.115 226.756-118.969-.342-211.346-11.117-272.545-48.454l-8.52 10.937-16.035 13.428c71.701 46.927 178.113 56.933 297.005 57.275 216.305.617 391.744-30.723 392.398-259.839.483-168.588-94.292-313.409-230.441-378.684zm-34.25-9.135H495.306v-11.049h252.002v11.049zm-1.515-45.289H495.325l-26.904-129.894h22.422l29.405 27.177c14.802 13.665 37.954 13.665 52.737 0l29.415-27.177h36.305l29.415 27.177c14.802 13.665 37.974 13.665 52.737 0l29.415-27.177h22.412l-26.892 129.894z"
    />
  </symbol>
  <symbol viewBox="0 0 1024 1024" id="topic-community-relations">
    <title>Community relations</title>
    <desc>A larger speech bubble overlayed with a smaller speech bubble</desc>
    <path d="M406.403 443.479H162.038c-10.352 0-18.745-8.394-18.745-18.758 0-10.365 8.394-18.758 18.745-18.758h244.365c10.352 0 18.747 8.394 18.747 18.758 0 10.364-8.395 18.758-18.747 18.758zM304.198 553.113h-142.16c-10.352 0-18.745-8.394-18.745-18.758s8.394-18.758 18.745-18.758h142.16c10.354 0 18.747 8.393 18.747 18.758s-8.393 18.758-18.747 18.758z"
    />
    <path d="M599.332 126.911c-126.228 0-238.977 46.572-314.662 119.439C126.526 247.509 12 341.724 12 471.337c0 105.266 36.616 203.743 83.681 297.318l48.072-109.357c24.025 9.637 71.24 23.512 143.828 23.512 4.456 0 8.749-.342 13.136-.471 73.95 58.716 178.221 94.816 298.614 94.816 118.628 0 191.923-24.494 224.107-38.457l69.613 158.392 17.923-35.374C915.108 853.577 1012 660.091 1012 462.428c0-194.407-173.55-335.517-412.668-335.517zM115.295 633.154l-20.898 49.719c-19.486-48.05-46.873-130.105-46.873-211.536 0-111.625 98.712-189.59 240.058-189.59 132.396 0 240.08 85.052 240.08 189.59 0 100.319-103.209 175.971-240.08 175.971-116.85 0-160.83-25.654-198.411-57.387-.643 2.206-.984 3.32-2.785 7.451 1.994 2.206 4.134 7.988 28.909 35.782zm779.257 174.171l-41.906-99.633s35.418-34.839 46.081-48.886c-.342-1.177-1.693-4.839-2.057-6.188-13.253 9.185-55.995 37.986-73.639 46.594-17.642 8.586-72.93 40.426-223.699 40.426-94.463 0-178.199-23.598-242.639-63.254 57.257-10.556 106.421-33.96 142.372-66.613h163.617v-37.517H531.861c15.599-23.082 25.812-48.927 29.593-76.7h276.899v-37.517h-275.99c-1.96-27.108-9.593-52.953-22.313-76.678h298.302v-37.517h-323.89c-40.685-48.136-103.692-82.653-176.721-93.68 67.548-52.784 159.548-85.738 261.59-85.738 220.895 0 375.154 122.546 375.154 298.002 0 138.908-52.119 279.676-79.933 344.899z"
    />
  </symbol>
  <symbol viewBox="0 0 1024 1024" id="topic-corporate-management">
    <title>Corporate management</title>
    <desc>Circle with arrow pointing to another circle, surrounded by two Xs</desc>
    <path d="M742.6 56.602c52.782 0 95.704 42.948 95.704 95.754 0 52.806-42.922 95.754-95.704 95.754-52.829 0-95.803-42.948-95.803-95.754 0-52.806 42.974-95.754 95.803-95.754m0-44.602c-77.591 0-140.408 62.84-140.408 140.356S665.009 292.74 742.6 292.74c77.489 0 140.309-62.869 140.309-140.384S820.09 12 742.6 12zM258.891 472.606l89.538-89.54c8.712-8.71 8.712-22.824 0-31.534-8.712-8.712-22.824-8.712-31.536 0l-89.538 89.564-89.538-89.564c-8.712-8.712-22.824-8.712-31.536 0-8.712 8.71-8.712 22.824 0 31.534l89.538 89.564-89.512 89.514c-8.712 8.712-8.712 22.824 0 31.536s22.824 8.712 31.536 0l89.512-89.54 89.538 89.54c8.712 8.712 22.824 8.712 31.536 0s8.712-22.824 0-31.536l-89.538-89.538zM843.704 862.473l89.538-89.514c8.712-8.712 8.712-22.824 0-31.536-8.71-8.712-22.824-8.712-31.534 0l-89.54 89.564-89.538-89.564c-8.712-8.712-22.824-8.712-31.536 0-8.71 8.712-8.71 22.824 0 31.536l89.54 89.564-89.514 89.512c-8.712 8.712-8.712 22.824 0 31.536s22.824 8.712 31.536 0l89.512-89.564 89.54 89.564c8.71 8.712 22.824 8.712 31.534 0 8.712-8.712 8.712-22.824 0-31.536l-89.538-89.562zM860.007 477.317L748.002 353.392c-8.279-9.145-22.417-9.834-31.51-1.607L592.539 463.818c-9.145 8.253-9.857 22.365-1.604 31.51 8.253 9.169 22.391 9.857 31.51 1.604l81.081-73.287C691.986 620.07 552.7 787.48 358.824 832.82c-16.66-57.569-68.626-100.415-131.672-101.534-.866 0-1.706-.052-2.572-.052-76.37.052-138.957 61.239-140.332 137.862C82.821 947.602 146.071 1012 224.682 1012c75.246 0 136.892-59.608 139.899-134.805 217.412-48.755 373.588-236.748 383.881-456.784l78.431 86.812c8.305 9.171 22.441 9.782 31.51 1.581 9.145-8.254 9.857-22.368 1.604-31.487zM224.682 967.369h-1.758c-52.933-.968-95.015-44.474-94.074-97.46.944-51.864 43.893-94.048 95.73-94.048h1.758c52.78.97 94.963 44.68 93.996 97.512-.945 51.815-43.841 93.996-95.652 93.996z"
    />
  </symbol>
  <symbol viewBox="0 0 1024 1024" id="topic-education-delivery">
    <title>Education delivery</title>
    <desc>A whiteboard with A B C written</desc>
    <path d="M397.997 618.773c-8.597 1.482-17.948-8.26-28.072-29.228-3.868-7.976-9.427-22.186-16.64-42.565-9.318 2.919-21.38 7.387-36.222 13.382L281.1 574.441c-2.56 13.034-7.508 32.278-14.777 57.757-2.091 5.733-5.709 9.045-10.853 9.938-3.738.611-7.311-.174-10.724-2.352-3.388-2.223-5.437-5.318-6.124-9.351-.763-4.468 3.368-22.708 12.422-54.748-2.004-2.158-3.29-4.839-3.823-7.999-1.297-7.564 2.462-13.185 11.246-16.913 7.236-21.816 16.75-47.077 28.571-75.825 16.096-39.208 26.853-59.238 32.258-60.176 7.376-1.285 13.304 3.009 17.772 12.817l16.859 45.593 37.521 93.827 11.779 20.749c3.988 7.084 6.211 11.9 6.637 14.451.696 3.988-.196 7.628-2.616 10.811-2.429 3.202-5.524 5.122-9.251 5.753zm-76.827-151.67l-29.04 71.422c10.809-4.818 27.353-11.268 49.637-19.289l-20.597-52.133zM555.204 581.808c-19.606 11.835-45.77 20.53-78.452 26.132-4.019.676-8.151-.587-12.389-3.727-4.252-3.16-6.713-6.778-7.401-10.788L450 552.648c-2.288-13.339-4.698-32.562-7.236-57.605-2.714-27.025-4.981-46.531-6.845-58.518-1.558-8.588-3.225-21.47-5.013-38.666-.152-4.772.873-8.128 3.042-10.047 12.029-6.079 26.132-10.525 42.281-13.272 16.455-2.812 33.193.109 50.238 8.74 19.68 9.896 31.133 24.324 34.37 43.286 4.098 24.016-2.004 44.526-18.33 61.548 15.029 3.553 26.656 8.412 34.861 14.516 8.195 6.079 13.034 13.424 14.493 22.035 1.942 11.288-2.31 23.275-12.739 35.918-7.224 8.912-15.2 16.016-23.918 21.225zm-39.221-69.132l-15.257.152c-1.198.219-3.04.589-5.49 1.156-2.453.545-4.339.957-5.646 1.154-5.046.895-10.472 1.372-16.312 1.504 1.437 11.878 2.953 22.45 4.533 31.689l4.959 28.989c24.333-4.992 43.676-11.857 58.06-20.597 6.113-3.618 11.692-8.608 16.761-14.973 4.861-5.818 7.095-9.938 6.68-12.38-.752-4.381-7.563-8.305-20.466-11.768-9.698-2.681-18.951-4.316-27.822-4.926zm-34.861-109.563c-10.188 1.765-17.261 3.29-21.271 4.642l3.912 24.585 6.461 54.703c13.471-1.134 20.642-1.852 21.557-2.091 13.926-3.531 24.704-9.918 32.374-19.093 8.184-9.96 11.17-21.468 8.936-34.544-1.524-8.894-7.813-16.261-18.928-22.166-11.094-5.884-22.121-7.888-33.041-6.036zM740.733 394.09c-5.972 1.024-11.052-1.701-15.248-8.195-3.638-5.535-6.68-8.762-9.141-9.677-2.147-.696-7.095-.393-14.844.96-13.545 2.265-26.806 15.257-39.797 38.795-17.665 31.667-24.376 59.957-20.104 84.891 2.058 12.074 7.715 21.793 16.944 29.118 9.472 7.628 19.812 10.483 31.026 8.563 9.621-1.634 18.863-5.796 27.723-12.378 4.946-3.727 12.313-10.681 22.122-20.794 4.653-4.816 8.336-7.497 11.05-7.954 4.01-.699 7.628.261 10.864 2.832 3.225 2.551 5.155 5.711 5.787 9.438.73 4.227-.415 8.195-3.432 12.009-20.912 26.045-43.993 41.257-69.21 45.551-19.343 3.312-36.954-1.33-52.853-13.884-15.344-12.206-24.693-28.094-28.049-47.709-5.405-31.647 2.31-66.387 23.157-104.18 17.404-31.515 37.345-49.191 59.87-53.047 4.566-.785 8.717-1.263 12.433-1.482 3.707-.196 7.052-.065 10.005.393 2.462-5.341 6.309-8.436 11.541-9.351 6.439-1.067 11.235 2.484 14.373 10.702 2.779 7.28 5.122 16.455 6.997 27.504.643 3.814.208 7.345-1.361 10.614-1.888 4.076-5.18 6.475-9.853 7.281z"
    />
    <g>
      <path d="M12 142.054v739.892h1000V142.054H12zm961.839 701.728h-610.43v-65.253H192.297v65.253H50.164V180.218h923.675v663.564z" />
    </g>
    <g>
      <path d="M75.838 205.477v613.001h96.931V796.16H98.156V227.795h827.701V796.16h-542.92v22.318h565.238V205.477z" />
    </g>
  </symbol>
  <symbol viewBox="0 0 1024 1024" id="topic-employment">
    <title>Employment</title>
    <desc>A door opening</desc>
    <path d="M204.308 12l416.158 150.591v784.694L204.308 796.691v47.991L665.623 1012V843.726h154.069V12z" />
    <path d="M571.472 598.288c0-22.011-17.888-39.87-39.896-39.87-22.037 0-39.899 17.859-39.899 39.87 0 22.037 17.862 39.899 39.899 39.899 22.008 0 39.896-17.862 39.896-39.899z" />
  </symbol>
  <symbol viewBox="0 0 1024 1024" id="topic-safety-and-welfare">
    <title>Safety and welfare</title>
    <desc>A life safety ring</desc>
    <path d="M512 12C235.823 12 12 235.847 12 512c0 276.151 223.823 500 500 500 276.138 0 500-223.849 500-500 0-276.153-223.862-500-500-500zm448.166 420.454H821.545c-28.956-112.522-117.48-201.047-230-229.987V63.821c187.463 33.228 335.406 181.158 368.621 368.633zM512 787.517c-152.179 0-275.517-123.351-275.517-275.517S359.821 236.457 512 236.457c152.166 0 275.53 123.377 275.53 275.543S664.166 787.517 512 787.517zM432.455 63.821v138.647c-112.496 28.94-201.034 117.465-229.987 229.987H63.847C97.049 244.979 244.992 97.049 432.455 63.821zM63.847 591.545h138.621c28.953 112.494 117.491 201.044 229.987 229.987v138.621C244.992 926.951 97.049 778.995 63.847 591.545zm527.698 368.608V821.532c112.519-28.943 201.044-117.493 230-229.987h138.621c-33.215 187.45-181.158 335.406-368.621 368.608z"
    />
  </symbol>
  <symbol viewBox="0 0 1024 1024" id="topic-school-management">
    <title>School management</title>
    <desc>A school with a flag on the roof</desc>
    <path d="M692 739.955h-76.426v-81.913c0-21.1 17.105-38.205 38.205-38.205h.012c21.103 0 38.21 17.107 38.21 38.21v81.908zM408.416 739.955h-76.413v-81.921c0-21.096 17.102-38.198 38.198-38.198h.007c21.102 0 38.208 17.107 38.208 38.208v81.911zM579.753 506.918c0 37.418-30.353 67.742-67.745 67.742-37.426 0-67.758-30.324-67.758-67.742 0-37.408 30.332-67.745 67.758-67.745 37.392.001 67.745 30.337 67.745 67.745zM810.418 704.484h84.295v145.374h-84.295zM129.303 704.484h84.295v145.374h-84.295z"
    />
    <path d="M936.8 890.4H768.3V672.834H1012l-56.458-186.382H764.468L526.11 295.282v-99.8c31.669 1.097 63.324 24.963 94.984 6.695v-84.645c-31.661 18.279-63.316-5.613-94.984-6.684v-5.468h-28.221v189.916l-238.35 191.158H68.461L12 672.834h243.716V890.4H87.189V691.868H58.963v226.753h906.076V691.868H936.8V890.4zm-196.726 0H589.632V740.658c0-42.874-34.753-77.618-77.624-77.618-42.884 0-77.645 34.771-77.645 77.645V890.4H283.947V531.179l228.06-183.747 228.066 183.747V890.4z"
    />
  </symbol>
  <symbol viewBox="0 0 1024 1024" id="topic-technology-and-telecommunications">
    <title>Technology and telecommunications</title>
    <desc>A handheld device with speach bubbles overlayed</desc>
    <path d="M1012 240.471H797.978V119.37H216.971v337.966H12v270.868h204.971V904.63h581.007V543.094H1012V240.471zM45.06 490.394h299.974v204.751H45.06V490.394zm523.748 378.615H446.143v-53.952h122.665v53.952zm193.723-75.677H252.419v-65.129h125.673v-50.682l62.572-45.55-62.572-45.552V457.336H252.419V181.042h510.112v59.429H641.18v113.39l-83.513 60.795 83.513 60.796v67.642h121.351v250.238zm216.411-283.296H674.238V273.529h304.704v236.507z"
    />
    <path d="M720.975 314.722h213.711v24.417H720.975zM720.975 379.573h213.711v24.417H720.975zM720.975 444.425h124.927v24.417H720.975zM80.934 548.11h230.025v24.415H80.934zM80.934 621.095h141.711v24.415H80.934z" />
  </symbol>
  <symbol viewBox="0 0 1024 1024" id="user">
    <title>User</title>
    <desc>Solid avatar</desc>
    <path d="M512.065 161.072c-102.459 0-185.775 83.333-185.775 185.742 0 102.409 83.316 185.774 185.775 185.774 102.392 0 185.775-83.365 185.775-185.774s-83.383-185.742-185.775-185.742z" />
    <path d="M692.115 862.928c49.604 0 89.815-40.212 89.815-89.815V663.465c0-68.506-36.313-128.19-90.527-161.702-43.588 50.422-107.797 82.437-179.345 82.437-71.631 0-135.823-32.015-179.444-82.438-54.248 33.512-90.543 93.196-90.543 161.702v109.648c0 49.604 40.212 89.815 89.815 89.815h360.229z"
    />
  </symbol>
</svg>
